#!OML:ASF E:\Mandelcareful walks\Project 1\Capture day 1\Session 1\Subject1.ASF
:FULLY-SPECIFIED
:DEGREES
2155
root 8.80642 15.0849 1.50476 135.805 261.284 -121.787
lowerback 39.0064 1.04651 2.4421
upperback 9.35678 0.751696 -3.10403
thorax -8.56107 -0.0360989 -4.83059
lowerneck -29.8951 8.24685 0.420685
upperneck 25.7097 15.192 -11.1592
head 14.9901 4.76363 -1.37853
rclavicle 7.15625e-015 -1.03368e-014
rhumerus -8.07545 3.90948 -79.8535
rradius 65.1425
rwrist -19.3113
rhand -16.6658 -28.2915
rfingers 7.12502
rthumb 9.55782 -58.0547
lclavicle 7.15625e-015 -1.03368e-014
lhumerus -8.10354 -13.6857 78.788
lradius 73.1995
lwrist 19.5153
lhand -28.1257 -16.8471
lfingers 7.12502
lthumb -1.50736 13.1273
rfemur -50.0951 -15.9172 16.2215
rtibia 68.8477
rfoot -28.9481 -9.19325
rtoes 2.35999
lfemur -56.8737 10.5161 -15.6912
ltibia 43.3912
lfoot 4.72443 1.51332
ltoes -13.6793
2156
root 8.72459 15.0474 1.61226 136.995 261.119 -122.281
lowerback 38.2299 0.984126 2.39139
upperback 9.34906 0.66218 -3.22985
thorax -8.32212 -0.0610038 -4.89929
lowerneck -29.8331 8.1809 0.402898
upperneck 25.6065 15.0071 -10.9265
head 14.8845 4.73237 -1.32409
rclavicle -3.57812e-014 4.21423e-014
rhumerus -8.12511 3.69551 -79.8835
rradius 65.2238
rwrist -19.3485
rhand -16.4664 -28.3185
rfingers 7.12502
rthumb 9.75023 -58.0728
lclavicle -3.57812e-014 4.21423e-014
lhumerus -7.92182 -14.0091 78.7446
lradius 73.3048
lwrist 19.5321
lhand -27.843 -16.9198
lfingers 7.12502
lthumb -1.23431 13.0563
rfemur -50.7952 -16.1481 15.7805
rtibia 69.4578
rfoot -29.1878 -9.26152
rtoes 1.14289
lfemur -58.295 10.4321 -16.5861
ltibia 44.6937
lfoot 3.94061 1.63314
ltoes -11.9956
2157
root 8.63937 15.0125 1.71967 137.455 260.878 -122.185
lowerback 37.6932 0.972222 2.22239
upperback 9.34646 0.585282 -3.35509
thorax -8.15458 -0.0843497 -4.91166
lowerneck -29.8822 8.06957 0.286875
upperneck 25.5347 14.8294 -10.7461
head 14.8167 4.67751 -1.27169
rclavicle 1.19271e-014 -2.38542e-015
rhumerus -8.17068 3.43644 -79.8865
rradius 65.3513
rwrist -19.4035
rhand -16.3321 -28.711
rfingers 7.12502
rthumb 9.8798 -58.4592
lclavicle 1.19271e-014 -2.38542e-015
lhumerus -7.6228 -14.5244 78.6679
lradius 73.3539
lwrist 19.6213
lhand -27.8556 -17.1914
lfingers 7.12502
lthumb -1.24644 12.7847
rfemur -51.2615 -16.3131 15.1538
rtibia 70.0534
rfoot -29.3887 -9.54853
rtoes -0.783774
lfemur -59.4885 10.3452 -17.6121
ltibia 46.0617
lfoot 3.11401 1.75684
ltoes -9.47873
2158
root 8.55266 14.9936 1.82325 138.24 260.864 -122.766
lowerback 37.5956 1.00046 2.12407
upperback 9.36087 0.585647 -3.35703
thorax -8.10658 -0.0818857 -4.86108
lowerneck -29.897 8.0049 0.263592
upperneck 25.4739 14.7452 -10.7681
head 14.7878 4.63987 -1.29517
rclavicle 1.59028e-014 6.36111e-015
rhumerus -8.16958 3.33111 -79.7198
rradius 65.4308
rwrist -19.5002
rhand -16.3988 -28.9356
rfingers 7.12502
rthumb 9.81537 -58.6868
lclavicle 1.59028e-014 6.36111e-015
lhumerus -7.31882 -14.9107 78.6724
lradius 73.4629
lwrist 19.657
lhand -27.9519 -17.2765
lfingers 7.12502
lthumb -1.33945 12.6991
rfemur -51.2838 -16.2049 14.6389
rtibia 70.5528
rfoot -29.6811 -10.1571
rtoes -2.67752
lfemur -60.1186 10.2014 -18.1072
ltibia 47.4595
lfoot 1.99812 1.84592
ltoes -7.34543
2159
root 8.47156 14.9763 1.92997 140.295 261.069 -124.661
lowerback 37.5393 0.984216 2.24352
upperback 9.36681 0.624377 -3.24884
thorax -8.07433 -0.0644145 -4.82247
lowerneck -29.9183 7.98414 0.271665
upperneck 25.483 14.7194 -10.7868
head 14.7975 4.62519 -1.30943
rclavicle 5.56597e-015 -2.74323e-014
rhumerus -8.13456 3.34931 -79.4527
rradius 65.4927
rwrist -19.8096
rhand -16.5654 -28.7247
rfingers 7.12502
rthumb 9.65467 -58.4834
lclavicle 5.56597e-015 -2.74323e-014
lhumerus -7.03428 -15.0233 78.8138
lradius 73.5491
lwrist 19.6442
lhand -27.6919 -17.1197
lfingers 7.12502
lthumb -1.08832 12.8572
rfemur -51.2798 -15.9669 14.3978
rtibia 70.9821
rfoot -29.8606 -11.2138
rtoes -3.84678
lfemur -60.7379 9.90122 -18.0544
ltibia 48.8983
lfoot 0.874449 1.93334
ltoes -6.32442
